<svg width="171" height="45" viewBox="0 0 171 45" fill="none" xmlns="http://www.w3.org/2000/svg">
<path d="M15.58 25.54C14.3533 23.58 13.2667 21.56 12.32 19.48C11.3733 17.3867 10.6667 15.4067 10.2 13.54H16.44C17.04 15.5533 17.8933 17.7933 19 20.26C20.1067 17.7933 20.96 15.5533 21.56 13.54H27.8C27.3333 15.42 26.62 17.4067 25.66 19.5C24.7133 21.58 23.6267 23.5933 22.4 25.54C22.4133 25.7667 22.42 26.1133 22.42 26.58C22.42 27.9533 22.3067 29.2933 22.08 30.6H15.92C15.6933 29.3333 15.58 27.9133 15.58 26.34V25.54ZM36.4078 31C34.7811 31 33.3678 30.7133 32.1678 30.14C30.9811 29.5667 30.0745 28.7533 29.4478 27.7C28.8211 26.6467 28.5078 25.4267 28.5078 24.04C28.5078 22.6533 28.8211 21.44 29.4478 20.4C30.0745 19.3467 30.9811 18.5333 32.1678 17.96C33.3678 17.3867 34.7811 17.1 36.4078 17.1C38.0345 17.1 39.4411 17.3867 40.6278 17.96C41.8278 18.5333 42.7411 19.3467 43.3678 20.4C43.9945 21.44 44.3078 22.6533 44.3078 24.04C44.3078 25.4267 43.9945 26.6467 43.3678 27.7C42.7411 28.7533 41.8278 29.5667 40.6278 30.14C39.4411 30.7133 38.0345 31 36.4078 31ZM36.4078 26.52C37.0345 26.52 37.5211 26.3133 37.8678 25.9C38.2278 25.4867 38.4078 24.8667 38.4078 24.04C38.4078 23.2267 38.2278 22.6133 37.8678 22.2C37.5211 21.7867 37.0345 21.58 36.4078 21.58C35.7811 21.58 35.2878 21.7867 34.9278 22.2C34.5811 22.6133 34.4078 23.2267 34.4078 24.04C34.4078 24.8667 34.5811 25.4867 34.9278 25.9C35.2878 26.3133 35.7811 26.52 36.4078 26.52ZM54.8647 29.16C54.3447 29.7067 53.7047 30.1267 52.9447 30.42C52.1847 30.7267 51.378 30.88 50.5247 30.88C48.698 30.88 47.418 30.16 46.6847 28.72C45.9647 27.2933 45.6047 25.3533 45.6047 22.9C45.6047 21.4333 45.7247 19.6333 45.9647 17.5H51.4647C51.4247 18.6333 51.4047 19.6133 51.4047 20.44C51.4047 21.9333 51.4647 23.0267 51.5847 23.72C51.718 24.4 51.898 24.8333 52.1247 25.02C52.3514 25.1933 52.6914 25.28 53.1447 25.28C53.6647 25.28 54.178 25.1267 54.6847 24.82C54.658 23.4867 54.6447 22.48 54.6447 21.8C54.6447 20.1333 54.678 18.7 54.7447 17.5H60.6047C60.738 19.1 60.8047 20.7667 60.8047 22.5C60.8047 25.1267 60.6314 27.8267 60.2847 30.6H54.9647L54.8647 29.16ZM69.9016 31C68.6082 31 67.5416 30.7867 66.7016 30.36C65.8749 29.9467 65.2349 29.2467 64.7816 28.26C64.3416 27.2867 64.1016 25.9667 64.0616 24.3L64.0216 22.42L61.9016 22.36V17.5L64.0216 17.44L64.1016 14.3H69.9616L70.0016 17.42L72.9016 17.5V22.36L69.9816 22.44L69.9616 23.04C69.9349 23.8267 69.9616 24.3933 70.0416 24.74C70.1216 25.0867 70.2949 25.3267 70.5616 25.46C70.8282 25.5933 71.1816 25.66 71.6216 25.66C71.8082 25.66 72.2016 25.6267 72.8016 25.56L73.1016 30.58C72.1549 30.86 71.0882 31 69.9016 31ZM74.7184 30.6C74.3718 26.8533 74.1984 23.2133 74.1984 19.68C74.1984 17.3333 74.2651 15.0867 74.3984 12.94H80.2584C80.3251 15.1 80.3584 17.0267 80.3584 18.72C80.8784 18.24 81.4984 17.8733 82.2184 17.62C82.9384 17.3533 83.6918 17.22 84.4784 17.22C86.3051 17.22 87.5784 17.94 88.2984 19.38C89.0318 20.8067 89.3984 22.7467 89.3984 25.2C89.3984 26.6667 89.2784 28.4667 89.0384 30.6H83.5384C83.5784 29.4667 83.5984 28.4867 83.5984 27.66C83.5984 26.1667 83.5318 25.08 83.3984 24.4C83.2784 23.7067 83.1051 23.2733 82.8784 23.1C82.6518 22.9133 82.3118 22.82 81.8584 22.82C81.3251 22.82 80.8118 22.9733 80.3184 23.28C80.2518 26.12 80.1584 28.56 80.0384 30.6H74.7184ZM97.4714 30.6C97.0181 28.1333 96.7914 25.6667 96.7914 23.2L96.8114 22.2C96.8781 19.7867 97.4514 17.9 98.5314 16.54C99.6247 15.18 101.091 14.2133 102.931 13.64C103.985 13.3067 105.205 13.14 106.591 13.14C107.565 13.14 108.498 13.22 109.391 13.38C110.298 13.54 111.025 13.7467 111.571 14L110.831 19.22C109.738 18.8333 108.571 18.64 107.331 18.64C106.518 18.64 105.858 18.7333 105.351 18.92C104.325 19.2667 103.651 19.9467 103.331 20.96C104.731 20.8933 105.991 20.86 107.111 20.86C108.258 20.86 109.451 20.8933 110.691 20.96L110.731 26C109.465 26.1067 107.945 26.16 106.171 26.16C105.158 26.16 104.151 26.14 103.151 26.1C103.205 27.3667 103.318 28.8667 103.491 30.6H97.4714ZM113.195 30.6C112.981 27.7467 112.875 24.84 112.875 21.88C112.875 20.28 112.901 18.82 112.955 17.5H118.835C118.888 18.82 118.915 20.28 118.915 21.88C118.915 24.84 118.808 27.7467 118.595 30.6H113.195ZM115.895 17.06C114.881 17.06 114.088 16.8 113.515 16.28C112.941 15.76 112.655 15.06 112.655 14.18C112.655 13.3133 112.941 12.62 113.515 12.1C114.088 11.5667 114.881 11.3 115.895 11.3C116.895 11.3 117.681 11.5667 118.255 12.1C118.841 12.62 119.135 13.3133 119.135 14.18C119.135 15.06 118.848 15.76 118.275 16.28C117.701 16.8 116.908 17.06 115.895 17.06ZM128.242 31C126.696 30.9733 125.329 30.6733 124.142 30.1C122.956 29.5267 122.029 28.72 121.362 27.68C120.696 26.6267 120.362 25.4 120.362 24C120.362 22.6267 120.662 21.4267 121.262 20.4C121.876 19.3733 122.756 18.58 123.902 18.02C125.062 17.4467 126.429 17.16 128.002 17.16C129.469 17.16 130.722 17.42 131.762 17.94C132.816 18.4467 133.616 19.16 134.162 20.08C134.722 20.9867 135.016 22.0467 135.042 23.26C135.056 23.6333 135.042 24.0333 135.002 24.46C134.976 24.8733 134.922 25.2133 134.842 25.48C132.989 25.56 131.249 25.6 129.622 25.6C128.476 25.6 127.382 25.58 126.342 25.54C126.489 25.8467 126.709 26.0933 127.002 26.28C127.309 26.4533 127.709 26.5733 128.202 26.64C128.696 26.7067 129.156 26.74 129.582 26.74C130.942 26.74 132.289 26.5 133.622 26.02L134.222 30.14C132.702 30.7533 130.709 31.04 128.242 31ZM126.162 22.84C126.882 22.88 127.536 22.9 128.122 22.9C128.736 22.9 129.282 22.88 129.762 22.84C129.722 22.3067 129.556 21.9267 129.262 21.7C128.969 21.4733 128.569 21.36 128.062 21.36C127.542 21.36 127.122 21.4733 126.802 21.7C126.496 21.9267 126.282 22.3067 126.162 22.84ZM136.848 30.6C136.488 27.0933 136.308 23.4533 136.308 19.68C136.308 17.4667 136.368 15.22 136.488 12.94H142.448C142.568 15.22 142.628 17.4667 142.628 19.68C142.628 23.4533 142.448 27.0933 142.088 30.6H136.848ZM150.478 31C149.131 31 147.964 30.72 146.978 30.16C145.991 29.6133 145.238 28.82 144.718 27.78C144.198 26.7267 143.938 25.48 143.938 24.04C143.938 22.6 144.198 21.36 144.718 20.32C145.238 19.28 145.991 18.4867 146.978 17.94C147.964 17.38 149.131 17.1 150.478 17.1C151.784 17.1 152.904 17.3733 153.838 17.92C153.838 16.28 153.858 14.62 153.898 12.94H159.658C159.778 15.34 159.838 17.7 159.838 20.02C159.838 23.74 159.684 27.2667 159.378 30.6H154.218L154.118 29.72C153.091 30.5733 151.878 31 150.478 31ZM151.838 26.52C152.464 26.52 152.951 26.3133 153.298 25.9C153.658 25.4867 153.838 24.8667 153.838 24.04C153.838 23.2267 153.658 22.6133 153.298 22.2C152.951 21.7867 152.464 21.58 151.838 21.58C151.211 21.58 150.718 21.7867 150.358 22.2C150.011 22.6133 149.838 23.2267 149.838 24.04C149.838 24.8667 150.011 25.4867 150.358 25.9C150.718 26.3133 151.211 26.52 151.838 26.52Z" fill="url(#paint0_linear_67_1183)"/>
<defs>
<linearGradient id="paint0_linear_67_1183" x1="10" y1="22.5" x2="161" y2="22.5" gradientUnits="userSpaceOnUse">
<stop stop-color="#0041A6"/>
<stop offset="1" stop-color="#8EBBFF"/>
</linearGradient>
</defs>
</svg>
